<?xml version="1.0" encoding="utf-8"?>
<!-- Generator: Adobe Illustrator 19.0.0, SVG Export Plug-In . SVG Version: 6.00 Build 0)  -->
<svg version="1.1" id="Layer_1" xmlns="http://www.w3.org/2000/svg" xmlns:xlink="http://www.w3.org/1999/xlink" x="0px" y="0px"
	 viewBox="-5 97 600 600" style="enable-background:new -5 97 600 600;" xml:space="preserve">
<style type="text/css">
	.st0{fill:#26A349;}
</style>
<path class="st0" d="M295,97C129.3,97-5,231.3-5,397s134.3,300,300,300s300-134.3,300-300S460.7,97,295,97z M279.2,583.7
	c-10.9,0-21.4-4.3-29.1-12c-7.7-7.7-12-18.2-12-29.1V327.4h-38c-38.4,0-69.6,31.2-69.6,69.6s31.2,69.6,69.6,69.6h15.8v41.1h-15.8
	c-61.2,0-110.7-49.6-110.7-110.7S139,286.3,200.1,286.3h79.1V583.7z M485.8,452.4c-19.8,34.3-56.3,55.4-95.9,55.4h-79.1V210.4
	c22.7,0,41.1,18.4,41.1,41.1v215.1h38c38.4,0,69.6-31.2,69.6-69.6s-31.2-69.6-69.6-69.6h-15.8v-41.1h15.8
	c39.6,0,76.1,21.1,95.9,55.4C505.6,375.9,505.6,418.1,485.8,452.4z"/>
</svg>
